<?xml version="1.0" encoding="UTF-8" standalone="no"?>
<!-- Created with Inkscape (http://www.inkscape.org/) -->

<svg
   width="24.555012mm"
   height="24.555012mm"
   viewBox="0 0 24.555012 24.555012"
   version="1.1"
   id="svg5"
   inkscape:version="1.1.1 (3bf5ae0d25, 2021-09-20)"
   sodipodi:docname="logo1.svg"
   xmlns:inkscape="http://www.inkscape.org/namespaces/inkscape"
   xmlns:sodipodi="http://sodipodi.sourceforge.net/DTD/sodipodi-0.dtd"
   xmlns:xlink="http://www.w3.org/1999/xlink"
   xmlns="http://www.w3.org/2000/svg"
   xmlns:svg="http://www.w3.org/2000/svg">
  <sodipodi:namedview
     id="namedview7"
     pagecolor="#ffffff"
     bordercolor="#666666"
     borderopacity="1.0"
     inkscape:pageshadow="2"
     inkscape:pageopacity="0.0"
     inkscape:pagecheckerboard="0"
     inkscape:document-units="mm"
     showgrid="false"
     inkscape:lockguides="true"
     inkscape:snap-global="true"
     inkscape:zoom="5.6568543"
     inkscape:cx="34.73662"
     inkscape:cy="25.190679"
     inkscape:window-width="1920"
     inkscape:window-height="991"
     inkscape:window-x="-9"
     inkscape:window-y="-9"
     inkscape:window-maximized="1"
     inkscape:current-layer="layer1" />
  <defs
     id="defs2">
    <linearGradient
       inkscape:collect="always"
       id="linearGradient8487">
      <stop
         style="stop-color:#cbebff;stop-opacity:1"
         offset="0"
         id="stop8483" />
      <stop
         style="stop-color:#ffffff;stop-opacity:0"
         offset="1"
         id="stop8485" />
    </linearGradient>
    <radialGradient
       inkscape:collect="always"
       xlink:href="#linearGradient8487"
       id="radialGradient8713"
       cx="10.511077"
       cy="8.2313232"
       fx="10.511077"
       fy="8.2313232"
       r="2.607065"
       gradientTransform="matrix(8.7972788,-0.16982178,0.09202916,4.7673891,-74.318788,-20.186594)"
       gradientUnits="userSpaceOnUse" />
  </defs>
  <g
     inkscape:label="Слой 1"
     inkscape:groupmode="layer"
     id="layer1"
     transform="translate(-7.4629745,-4.1570091)">
    <path
       id="rect405"
       style="fill:#c3e8ff;fill-opacity:1;stroke-width:0.334592"
       d="m 13.136858,15.715803 c -0.798923,-2.46853 1.388855,-4.819476 5.053827,-2.894867 2.661006,-3.3839656 8.605693,-2.318403 7.427321,2.312209 3.534038,-0.899135 6.366153,5.840974 0.156935,5.801751 -13.148048,0.06478 -3.208194,0.06169 -12.438544,0.03394 C 8.3395886,20.98002 9.8483874,15.31202 13.13686,15.715812 Z"
       sodipodi:nodetypes="cccccc" />
    <path
       id="path6835"
       style="fill:none;fill-opacity:1;stroke:url(#radialGradient8713);stroke-width:0.334592;stroke-opacity:1"
       d="m 13.136858,15.715803 c -0.798927,-2.46853 1.388855,-4.819476 5.053827,-2.894867 2.661006,-3.3839656 8.605693,-2.318403 7.427321,2.312209 3.534038,-0.899135 6.366153,5.840974 0.156935,5.801751 -13.148049,0.06478 -3.208194,0.06169 -12.438544,0.03394 C 8.3395868,20.98002 9.8483854,15.31202 13.13686,15.715812 Z"
       sodipodi:nodetypes="cccccc" />
    <path
       id="rect10673"
       style="fill:#80d0ff;fill-opacity:1;stroke-width:0.915335"
       d="m 17.612886,16.646143 h 4.207812 c 0.202389,-0.0026 0.222377,0.108274 0.221737,0.231115 v 2.496172 c -0.0031,0.54023 -0.132169,0.894993 -0.639855,0.892211 l -3.264475,-0.0035 c -0.608925,0 -0.74644,-0.404378 -0.742031,-1.050692 v -2.32639 c 0.0046,-0.182889 0.09633,-0.240264 0.216801,-0.238907 z"
       sodipodi:nodetypes="ccccccccc" />
    <path
       id="rect14743"
       style="fill:#80d0ff;fill-opacity:1;stroke-width:0.24499"
       d="m 17.871117,16.687219 c 0,-2.787101 3.703773,-2.764855 3.703773,0 h -0.435962 c 0,-2.312363 -2.831849,-2.392532 -2.831849,0 z"
       sodipodi:nodetypes="ccccc" />
    <path
       id="rect24405"
       style="stroke-width:0.997407"
       d="m 19.463733,19.069613 c -0.296358,-0.624307 0.718783,-0.575951 0.426174,4.83e-4 l 0.173708,0.512 h -0.75863 l 0.158753,-0.512 z"
       sodipodi:nodetypes="cccccc" />
  </g>
</svg>
